<svg width="21" height="22" viewBox="0 0 21 22" fill="none" xmlns="http://www.w3.org/2000/svg">
<path fill-rule="evenodd" clip-rule="evenodd" d="M10.5 5.0062C7.23926 5.0062 4.59375 7.6517 4.59375 10.9124C4.59375 14.1732 7.23926 16.8187 10.5 16.8187C13.7607 16.8187 16.4062 14.1732 16.4062 10.9124C16.4062 7.6517 13.7607 5.0062 10.5 5.0062ZM13.7812 10.9124C13.7812 12.7253 12.3129 14.1937 10.5 14.1937C8.68711 14.1937 7.21875 12.7253 7.21875 10.9124C7.21875 9.09955 8.68711 7.6312 10.5 7.6312C12.3129 7.6312 13.7812 9.09955 13.7812 10.9124ZM10.5 21.4124C16.2996 21.4124 21 16.7121 21 10.9124C21 5.11284 16.2996 0.412445 10.5 0.412445C4.70039 0.412445 0 5.11284 0 10.9124C0 16.7121 4.70039 21.4124 10.5 21.4124ZM2.625 10.9124C2.625 6.52787 6.11543 3.03745 10.5 3.03745C14.8477 3.03745 18.375 6.52787 18.375 10.9124C18.375 15.2601 14.8477 18.7874 10.5 18.7874C6.11543 18.7874 2.625 15.2601 2.625 10.9124Z" fill="#ED0871"/>
</svg>
